<svg width="20" height="18" viewBox="0 0 20 18" fill="none" xmlns="http://www.w3.org/2000/svg">
<path fill-rule="evenodd" clip-rule="evenodd" d="M14.125 4.125C14.125 1.84683 12.2782 0 10 0C7.72183 0 5.875 1.84683 5.875 4.125C5.875 6.40317 7.72183 8.25 10 8.25C12.2771 8.24742 14.1224 6.4021 14.125 4.125ZM10 6.75C8.55025 6.75 7.375 5.57475 7.375 4.125C7.375 2.67525 8.55025 1.5 10 1.5C11.4497 1.5 12.625 2.67525 12.625 4.125C12.625 5.57475 11.4497 6.75 10 6.75ZM15.625 9C13.3468 9 11.5 10.8468 11.5 13.125C11.5 15.4032 13.3468 17.25 15.625 17.25C17.9032 17.25 19.75 15.4032 19.75 13.125C19.7474 10.8479 17.9021 9.00258 15.625 9ZM15.625 15.75C14.1753 15.75 13 14.5747 13 13.125C13 11.6753 14.1753 10.5 15.625 10.5C17.0747 10.5 18.25 11.6753 18.25 13.125C18.25 14.5747 17.0747 15.75 15.625 15.75ZM4.375 9C2.09683 9 0.25 10.8468 0.25 13.125C0.25 15.4032 2.09683 17.25 4.375 17.25C6.65317 17.25 8.5 15.4032 8.5 13.125C8.49742 10.8479 6.6521 9.00258 4.375 9ZM4.375 15.75C2.92525 15.75 1.75 14.5747 1.75 13.125C1.75 11.6753 2.92525 10.5 4.375 10.5C5.82475 10.5 7 11.6753 7 13.125C7 14.5747 5.82475 15.75 4.375 15.75Z" fill="#141414"/>
</svg>
