<svg width="18" height="18" viewBox="0 0 18 18" fill="none" xmlns="http://www.w3.org/2000/svg">
<path id="Vector - 0" fill-rule="evenodd" clip-rule="evenodd" d="M14.25 7.5C14.25 7.91421 13.9142 8.25 13.5 8.25H7.5C7.08579 8.25 6.75 7.91421 6.75 7.5C6.75 7.08579 7.08579 6.75 7.5 6.75H13.5C13.9142 6.75 14.25 7.08579 14.25 7.5ZM13.5 9.75H7.5C7.08579 9.75 6.75 10.0858 6.75 10.5C6.75 10.9142 7.08579 11.25 7.5 11.25H13.5C13.9142 11.25 14.25 10.9142 14.25 10.5C14.25 10.0858 13.9142 9.75 13.5 9.75ZM18 1.5V16.5C18 17.3284 17.3284 18 16.5 18H1.5C0.671573 18 0 17.3284 0 16.5V1.5C0 0.671573 0.671573 0 1.5 0H16.5C17.3284 0 18 0.671573 18 1.5ZM1.5 16.5H3.75V1.5H1.5V16.5ZM16.5 16.5V1.5H5.25V16.5H16.5Z" fill="#141414"/>
</svg>
